<svg width="20" height="20" viewBox="0 0 20 20" fill="none" xmlns="http://www.w3.org/2000/svg">
<path d="M14.707 7.29297C15.098 7.68397 15.098 8.31603 14.707 8.70703L9.707 13.707C9.512 13.902 9.256 14 9 14C8.744 14 8.488 13.902 8.293 13.707L5.293 10.707C4.902 10.316 4.902 9.68397 5.293 9.29297C5.684 8.90197 6.316 8.90197 6.707 9.29297L9 11.5861L13.293 7.29297C13.684 6.90197 14.316 6.90197 14.707 7.29297ZM20 10C20 15.514 15.514 20 10 20C4.486 20 0 15.514 0 10C0 4.486 4.486 0 10 0C15.514 0 20 4.486 20 10ZM18 10C18 5.589 14.411 2 10 2C5.589 2 2 5.589 2 10C2 14.411 5.589 18 10 18C14.411 18 18 14.411 18 10Z" fill="white" fill-opacity="0.8"/>
</svg>
