<svg width="20" height="20" viewBox="0 0 20 20" fill="none" xmlns="http://www.w3.org/2000/svg">
<path d="M10 0C4.486 0 0 4.486 0 10C0 15.514 4.486 20 10 20C15.514 20 20 15.514 20 10C20 4.486 15.514 0 10 0ZM10 18C5.589 18 2 14.411 2 10C2 5.589 5.589 2 10 2C14.411 2 18 5.589 18 10C18 14.411 14.411 18 10 18ZM11 14C11 14.552 10.552 15 10 15C9.448 15 9 14.552 9 14C9 13.448 9.448 13 10 13C10.552 13 11 13.448 11 14ZM11 6V10C11 10.553 10.552 11 10 11C9.448 11 9 10.553 9 10V6C9 5.447 9.448 5 10 5C10.552 5 11 5.447 11 6Z" fill="white" fill-opacity="0.8"/>
</svg>
