<svg width="78" height="22" viewBox="0 0 78 22" fill="none" xmlns="http://www.w3.org/2000/svg">
<path opacity="0.5" d="M43.4429 2.30721L38.5824 12.8075H38.0899V0.0440138H31.1464V21.5107H36.9046C38.4662 21.5107 39.8564 20.6106 40.5202 19.2183L45.4112 8.74568H45.9022V21.5107H52.8472V0.0440138H47.0018C45.4984 0.0440138 44.0806 0.942547 43.4429 2.30721ZM17.6341 2.85768L14.7695 12.809H14.277L11.3834 2.85768C11.145 2.04329 10.6493 1.32856 9.97073 0.8211C9.29217 0.313643 8.46754 0.0409266 7.621 0.0440138H0.764648V21.5107H7.70818V8.74721H8.20065L12.1939 21.5107H16.8235L20.8152 8.74721H21.3077V21.5107H28.2528V0.0440138H21.3949C19.659 0.0440138 18.0959 1.17561 17.6325 2.85768H17.6341ZM55.7409 9.61661V21.5107H62.6844V14.5493H70.151C71.6835 14.5538 73.1797 14.0818 74.4337 13.1984C75.6876 12.315 76.6375 11.0637 77.1526 9.61661H55.7409ZM69.9476 0.0424805H54.4959C55.4518 5.14848 59.907 8.74721 65.2599 8.74721H77.2689C77.3625 8.24972 77.4107 7.74469 77.4126 7.23841C77.4126 3.08921 74.0862 0.0440138 69.9491 0.0440138L69.9476 0.0424805Z" fill="white"/>
</svg>
