<svg width="80" height="26" viewBox="0 0 80 26" fill="none" xmlns="http://www.w3.org/2000/svg">
<path opacity="0.5" d="M52.0782 0.224121C46.5018 0.224121 41.5164 3.09152 41.5164 8.37812C41.5164 14.4405 50.3546 14.8617 50.3546 17.9055C50.3546 19.1907 48.8691 20.3355 46.3364 20.3355C42.7364 20.3355 40.0455 18.7299 40.0455 18.7299L38.8909 24.0705C38.8909 24.0705 41.9891 25.4259 46.1018 25.4259C52.2037 25.4259 57 22.4199 57 17.0415C57 10.6335 48.1218 10.2303 48.1218 7.39532C48.1218 6.39092 49.34 5.28572 51.8728 5.28572C54.7273 5.28572 57.0546 6.45392 57.0546 6.45392L58.1818 1.30052C58.1818 1.30772 55.6491 0.225921 52.08 0.225921L52.0782 0.224121ZM1.04185 0.616521L0.909119 1.39412C0.909119 1.39412 3.25275 1.82252 5.3673 2.67032C8.08912 3.64232 8.28548 4.21112 8.74185 5.97152L13.7346 25.0281H20.4255L30.7455 0.614721H24.0691L17.44 17.2125L14.7346 3.14552C14.4909 1.53452 13.2309 0.614721 11.6909 0.614721H1.04366L1.04185 0.616521ZM33.4328 0.616521L28.1964 25.0227H34.5655L39.7782 0.614721H33.4328V0.616521ZM68.9528 0.616521C67.42 0.616521 66.6018 1.43372 66.0037 2.85032L56.6764 25.0227H63.3546L64.6455 21.3255H72.7818L73.5691 25.0227H79.4673L74.3237 0.614721H68.9528V0.616521ZM69.8255 7.20992L71.8073 16.3719H66.4982L69.8255 7.20992Z" fill="white"/>
</svg>
